<?xml version="1.0" encoding="utf-8"?>
<!-- Generator: Adobe Illustrator 27.5.0, SVG Export Plug-In . SVG Version: 6.00 Build 0)  -->
<svg version="1.1" id="Layer_1" xmlns="http://www.w3.org/2000/svg" xmlns:xlink="http://www.w3.org/1999/xlink" x="0px" y="0px"
	 viewBox="0 0 4000 7000" style="enable-background:new 0 0 4000 7000;" xml:space="preserve">
<g>
	<rect x="1.041" y="1.012" style="fill-rule:evenodd;clip-rule:evenodd;fill:#F5F5F5;" width="3999.432" height="6998.988"/>
	<g>
		<defs>
			<path id="SVGID_1_" d="M960.805,2808.888C1744.199,999.956,1017.78,1.012,1017.78,1.012H1.041V7000h1429.801
				C590.471,6077.672,177.411,4617.819,960.805,2808.888"/>
		</defs>
		<clipPath id="SVGID_00000109737950935094753710000001962254873439287985_">
			<use xlink:href="#SVGID_1_"  style="overflow:visible;"/>
		</clipPath>
		
			<linearGradient id="SVGID_00000074419838970988249940000016920680621125111991_" gradientUnits="userSpaceOnUse" x1="95.7496" y1="3488.0732" x2="2000.405" y2="3518.5542">
			<stop  offset="0" style="stop-color:#0131B8"/>
			<stop  offset="1" style="stop-color:#51F4E9"/>
		</linearGradient>
		
			<rect x="1.041" y="1.012" style="clip-path:url(#SVGID_00000109737950935094753710000001962254873439287985_);fill:url(#SVGID_00000074419838970988249940000016920680621125111991_);" width="1743.158" height="6998.988"/>
	</g>
	<g>
		<defs>
			<path id="SVGID_00000142854405403121895850000004493068616762005405_" d="M1.041,20.255
				c65.854,58.908,135.039,117.317,208.69,174.96c954.44,746.978,1352.95,1446.711,1452.118,2159.934
				c99.189,713.348-101.003,1440.533-343.948,2242.029c-176.951,583.786-216.731,1018.502-173.584,1332.305
				c27.632,200.979,89.281,352.443,170.701,461.771c81.535,109.471,182.912,176.724,289.861,209.139
				c78.535,23.803,160.061,28.82,238.917,17.978c209.549-28.812,385.309,66.792,522.886,230.637
				c38.187,45.478,73.435,96.207,105.652,150.991h6.215c-32.795-56.084-68.737-107.996-107.743-154.447
				c-138.728-165.219-316.094-261.601-527.739-232.5c-78.13,10.745-158.877,5.781-236.64-17.79
				c-105.881-32.093-206.284-98.723-287.094-207.226c-80.92-108.649-142.199-259.291-169.7-459.283
				c-43.051-313.12-3.305-747.061,173.396-1330.029c243.131-802.109,443.47-1529.886,344.134-2244.328
				c-99.356-714.556-498.427-1415.452-1454.123-2163.414C138.145,132.368,67.862,72.96,1.041,13.04V20.255z"/>
		</defs>
		<clipPath id="SVGID_00000139997102807659086480000006991556668306602927_">
			<use xlink:href="#SVGID_00000142854405403121895850000004493068616762005405_"  style="overflow:visible;"/>
		</clipPath>
		
			<linearGradient id="SVGID_00000136408075367577176370000010513577910981766818_" gradientUnits="userSpaceOnUse" x1="1477.5212" y1="-29.9568" x2="928.5732" y2="8136.3477">
			<stop  offset="0" style="stop-color:#FFFF00"/>
			<stop  offset="1" style="stop-color:#FF00F6"/>
		</linearGradient>
		
			<rect x="1.041" y="13.04" style="clip-path:url(#SVGID_00000139997102807659086480000006991556668306602927_);fill:url(#SVGID_00000136408075367577176370000010513577910981766818_);" width="2477.509" height="6986.96"/>
	</g>
	<g>
		<defs>
			<path id="SVGID_00000052096272739070278580000003949886728660427940_" d="M105.646,1.012
				c73.123,70.635,151.118,140.711,234.748,209.963c933.493,772.993,1312.57,1483.441,1392.051,2199.131
				c79.493,715.813-140.661,1437.203-405.593,2231.694c-192.974,578.697-244.716,1012.15-210.23,1327.022
				c22.083,201.649,79.535,354.755,157.919,466.293c78.493,111.689,177.978,181.706,283.983,217.055
				c77.857,25.96,159.214,33.224,238.339,24.557c210.273-23.03,383.327,77.377,516.334,244.947
				c19.612,24.709,38.357,50.878,56.22,78.325h6.384c-18.521-28.653-37.985-55.947-58.393-81.661
				c-134.128-168.981-308.773-270.219-521.132-246.96c-78.4,8.587-158.982,1.402-236.054-24.298
				c-104.963-35-203.495-104.37-281.276-215.05c-77.895-110.835-134.997-263.107-156.974-463.795
				c-34.411-314.193,17.274-746.872,209.971-1324.739c265.14-795.108,485.46-1517.096,405.845-2234
				c-79.628-717.021-459.232-1428.643-1393.959-2202.659C261.834,138.942,185.336,70.245,113.465,1.012H105.646z"/>
		</defs>
		<clipPath id="SVGID_00000165923923590110716930000011972423651683653518_">
			<use xlink:href="#SVGID_00000052096272739070278580000003949886728660427940_"  style="overflow:visible;"/>
		</clipPath>
		
			<linearGradient id="SVGID_00000085931682837853837030000004867923625753558962_" gradientUnits="userSpaceOnUse" x1="1478.0415" y1="-29.915" x2="929.0917" y2="8136.416">
			<stop  offset="0" style="stop-color:#FFFF00"/>
			<stop  offset="1" style="stop-color:#FF00F6"/>
		</linearGradient>
		
			<rect x="105.646" y="1.012" style="clip-path:url(#SVGID_00000165923923590110716930000011972423651683653518_);fill:url(#SVGID_00000085931682837853837030000004867923625753558962_);" width="2270.154" height="6998.988"/>
	</g>
	<g>
		<defs>
			<path id="SVGID_00000011732295984897935820000003916226758613412232_" d="M231.8,1.012
				c74.175,76.309,153.954,152.134,239.736,227.245c911.835,798.419,1271.193,1519.045,1330.922,2236.653
				c59.74,717.717-180.209,1432.771-466.936,2219.673c-208.844,573.146-272.505,1005.015-246.71,1320.736
				c16.521,202.184,69.728,356.814,145.004,470.458c75.386,113.812,172.903,186.542,277.895,224.799
				c77.096,28.093,158.226,37.587,237.583,31.105c210.82-17.224,381.039,87.912,509.384,259.087
				c2.291,3.055,4.565,6.134,6.832,9.232h6.613c-3.031-4.18-6.075-8.336-9.152-12.441
				c-129.425-172.616-301.208-278.623-514.135-261.226c-78.589,6.422-158.934-2.982-235.284-30.801
				c-103.964-37.883-200.545-109.937-275.25-222.719c-74.81-112.943-127.699-266.736-144.143-467.951
				c-25.738-315,37.854-746.085,246.406-1318.439c286.946-787.495,527.071-1503.128,467.241-2221.968
				C1747.965,1745.516,1388.109,1023.7,475.065,224.22C390.799,150.436,312.4,75.954,239.359,1.012H231.8z"/>
		</defs>
		<clipPath id="SVGID_00000001632810497047599360000007176888020331281799_">
			<use xlink:href="#SVGID_00000011732295984897935820000003916226758613412232_"  style="overflow:visible;"/>
		</clipPath>
		
			<linearGradient id="SVGID_00000062896661823419242170000009295751982080032153_" gradientUnits="userSpaceOnUse" x1="1489.2301" y1="-29.165" x2="940.2819" y2="8137.1426">
			<stop  offset="0" style="stop-color:#FFFF00"/>
			<stop  offset="1" style="stop-color:#FF00F6"/>
		</linearGradient>
		
			<rect x="231.8" y="1.012" style="clip-path:url(#SVGID_00000001632810497047599360000007176888020331281799_);fill:url(#SVGID_00000062896661823419242170000009295751982080032153_);" width="2040.324" height="6998.988"/>
	</g>
	<g>
		<defs>
			<path id="SVGID_00000143579637275562299060000011764919585629832875_" d="M358.692,1.012
				c75.192,82.452,156.337,164.569,244.39,246.064c889.498,823.247,1228.864,1553.495,1268.798,2272.468
				c39.939,719.1-219.618,1427.272-527.919,2205.969c-224.555,567.177-300.101,997.122-283.011,1313.434
				c10.942,202.553,59.871,358.59,131.987,474.269c72.223,115.851,167.698,191.241,271.593,232.374
				c76.296,30.208,157.133,41.936,236.627,37.641c187.504-10.126,340.367,75.273,458.786,216.77h6.999
				c-119.845-144.807-275.121-232.438-466.084-222.125c-78.743,4.256-158.802-7.359-234.351-37.269
				c-102.88-40.733-197.447-115.423-269.012-230.216c-71.669-114.959-120.3-270.152-131.191-471.747
				c-17.046-315.598,58.399-744.771,282.64-1311.157c308.535-779.291,568.292-1488.041,528.291-2208.242
				c-40.007-720.326-379.833-1451.782-1270.502-2276.114c-86.65-80.195-166.656-160.992-240.825-242.12H358.692z"/>
		</defs>
		<clipPath id="SVGID_00000015351755432540800040000000136433735095828129_">
			<use xlink:href="#SVGID_00000143579637275562299060000011764919585629832875_"  style="overflow:visible;"/>
		</clipPath>
		
			<linearGradient id="SVGID_00000171685891674922226110000001005322042206405294_" gradientUnits="userSpaceOnUse" x1="1500.0358" y1="-28.438" x2="951.0869" y2="8137.8799">
			<stop  offset="0" style="stop-color:#FFFF00"/>
			<stop  offset="1" style="stop-color:#FF00F6"/>
		</linearGradient>
		
			<rect x="358.692" y="1.012" style="clip-path:url(#SVGID_00000015351755432540800040000000136433735095828129_);fill:url(#SVGID_00000171685891674922226110000001005322042206405294_);" width="1808.249" height="6998.988"/>
	</g>
	<g>
		<defs>
			<path id="SVGID_00000123419851357094397030000017492271780668484521_" d="M485.885,1.012
				c76.124,89.08,158.716,177.988,249.128,266.413C1601.48,1114.861,1920.594,1854.186,1940.701,2574
				c20.11,719.929-258.86,1420.674-588.502,2190.579c-240.09,560.76-327.45,988.465-319.081,1305.133
				c5.356,202.792,49.961,360.119,118.863,477.735c69.007,117.799,162.366,195.8,265.087,239.776
				c75.423,32.292,155.908,46.244,235.501,44.138c159.838-4.223,292.658,60.106,399.257,168.638h7.521
				c-108.193-111.837-243.55-178.311-406.926-173.996c-78.818,2.086-158.524-11.734-233.233-43.721
				c-101.722-43.549-194.194-120.817-262.563-237.534c-68.482-116.901-112.818-273.375-118.147-475.184
				c-8.349-315.938,78.896-742.866,318.665-1302.865c329.894-770.496,609.079-1471.823,588.938-2192.854
				C1925.934,1852.7,1606.389,1112.164,738.77,263.599C649.654,176.44,568.124,88.809,492.915,1.012H485.885z"/>
		</defs>
		<clipPath id="SVGID_00000020390246280851271000000015809345078322621118_">
			<use xlink:href="#SVGID_00000123419851357094397030000017492271780668484521_"  style="overflow:visible;"/>
		</clipPath>
		
			<linearGradient id="SVGID_00000013914031249812027880000002596903954144737947_" gradientUnits="userSpaceOnUse" x1="1509.7908" y1="-27.7809" x2="960.8414" y2="8138.543">
			<stop  offset="0" style="stop-color:#FFFF00"/>
			<stop  offset="1" style="stop-color:#FF00F6"/>
		</linearGradient>
		
			<rect x="485.885" y="1.012" style="clip-path:url(#SVGID_00000020390246280851271000000015809345078322621118_);fill:url(#SVGID_00000013914031249812027880000002596903954144737947_);" width="1573.461" height="6998.988"/>
	</g>
	<g>
		<defs>
			<path id="SVGID_00000163066063388296999320000013275889191948687496_" d="M613.464,1.012
				c76.918,96.193,161.006,192.41,253.821,288.328c842.794,870.999,1141.417,1618.838,1141.683,2338.922
				c0.264,720.186-297.913,1412.992-648.647,2173.532c-255.458,553.942-354.567,979.076-354.93,1295.852
				c-0.231,202.848,40.026,361.341,105.662,480.823c65.734,119.657,156.91,200.198,258.374,246.985
				c74.509,34.362,154.576,50.526,234.193,50.617c131.207,0.151,242.95,45.945,336.05,123.931h8.336
				c-94.96-81.273-209.457-129.143-344.38-129.295c-78.854-0.089-158.148-16.1-231.943-50.13
				c-100.485-46.337-190.797-126.123-255.924-244.675c-65.226-118.733-105.235-276.365-105.003-478.252
				c0.363-316.051,99.335-740.418,354.442-1293.6c350.991-761.106,649.393-1454.465,649.129-2175.797
				c-0.267-721.43-299.282-1470.492-1143.187-2342.636C779.522,190.932,696.429,95.961,620.333,1.012H613.464z"/>
		</defs>
		<clipPath id="SVGID_00000175320751776465482270000015282717645532205244_">
			<use xlink:href="#SVGID_00000163066063388296999320000013275889191948687496_"  style="overflow:visible;"/>
		</clipPath>
		
			<linearGradient id="SVGID_00000032628115576978426030000015102422366494035115_" gradientUnits="userSpaceOnUse" x1="1551.3604" y1="-30.1272" x2="1002.4137" y2="8136.1563">
			<stop  offset="0" style="stop-color:#FFFF00"/>
			<stop  offset="1" style="stop-color:#FF00F6"/>
		</linearGradient>
		
			<rect x="613.464" y="1.012" style="clip-path:url(#SVGID_00000175320751776465482270000015282717645532205244_);fill:url(#SVGID_00000032628115576978426030000015102422366494035115_);" width="1401.127" height="6998.988"/>
	</g>
	<g>
		<defs>
			<path id="SVGID_00000020400530274348947440000017962028421586142111_" d="M741.516,1.012
				c77.51,103.776,163.119,207.823,258.327,311.803c818.467,893.883,1096.371,1649.67,1076.794,2369.491
				c-19.576,719.938-336.73,1404.258-708.281,2154.831c-270.626,546.7-381.413,968.941-390.506,1285.581
				c-5.819,202.771,30.053,362.313,92.369,483.55c62.406,121.417,151.335,204.435,251.479,254.01
				c73.545,36.402,153.142,54.771,232.716,57.056c100.909,2.899,189.555,32.497,266.484,82.667h9.779
				c-79.273-53.421-171.109-85.022-276.124-88.038c-78.818-2.263-157.651-20.448-230.469-56.496
				c-99.16-49.086-187.232-131.328-249.073-251.639c-61.934-120.494-97.583-279.172-91.79-480.973
				c9.069-315.927,119.697-737.401,389.944-1283.331c371.835-751.153,689.238-1436.036,708.843-2157.081
				c19.613-721.162-258.65-1478.18-1078.206-2373.251C909.698,206.42,825.023,103.584,748.245,1.012H741.516z"/>
		</defs>
		<clipPath id="SVGID_00000023975656604462981020000004079699952773493640_">
			<use xlink:href="#SVGID_00000020400530274348947440000017962028421586142111_"  style="overflow:visible;"/>
		</clipPath>
		
			<linearGradient id="SVGID_00000087387742109250484180000007467994197943389080_" gradientUnits="userSpaceOnUse" x1="1658.0726" y1="-17.8139" x2="1109.126" y2="8148.4712">
			<stop  offset="0" style="stop-color:#FFFF00"/>
			<stop  offset="1" style="stop-color:#FF00F6"/>
		</linearGradient>
		
			<rect x="741.516" y="1.012" style="clip-path:url(#SVGID_00000023975656604462981020000004079699952773493640_);fill:url(#SVGID_00000087387742109250484180000007467994197943389080_);" width="1360.103" height="6998.988"/>
	</g>
	<g>
		<defs>
			<path id="SVGID_00000121258681969096802510000012869718716025044373_" d="M870.133,1.012
				c77.843,111.821,164.966,224.228,262.513,336.84c793.528,916.098,1050.502,1679.253,1011.098,2398.264
				c-39.412,719.131-375.298,1394.45-767.387,2134.5c-285.583,539.024-407.958,958.055-425.775,1274.327
				c-11.407,202.529,20.059,363.001,79.012,485.916c59.045,123.1,145.645,208.54,244.377,260.847
				c72.503,38.414,151.562,58.961,231.049,63.437c67.346,3.794,128.887,19.362,184.844,44.858h12.694
				c-59.292-28.659-124.948-46.139-197.239-50.211c-78.727-4.433-157.02-24.785-228.829-62.829
				c-97.781-51.805-183.557-136.442-242.056-258.403c-58.588-122.149-89.851-281.751-78.498-483.318
				c17.776-315.55,139.975-733.819,425.164-1272.103c392.396-740.627,728.548-1416.504,768.017-2136.732
				c39.476-720.34-217.826-1484.744-1012.406-2402.054c-96.53-111.44-182.779-222.674-259.98-333.337H870.133z"/>
		</defs>
		<clipPath id="SVGID_00000029724437173554522960000017432395966054220173_">
			<use xlink:href="#SVGID_00000121258681969096802510000012869718716025044373_"  style="overflow:visible;"/>
		</clipPath>
		
			<linearGradient id="SVGID_00000155836061247441902950000012775318658676651667_" gradientUnits="userSpaceOnUse" x1="1765.3834" y1="-10.6039" x2="1216.4353" y2="8155.7026">
			<stop  offset="0" style="stop-color:#FFFF00"/>
			<stop  offset="1" style="stop-color:#FF00F6"/>
		</linearGradient>
		
			<rect x="870.133" y="1.012" style="clip-path:url(#SVGID_00000029724437173554522960000017432395966054220173_);fill:url(#SVGID_00000155836061247441902950000012775318658676651667_);" width="1318.46" height="6998.988"/>
	</g>
	<g>
		<defs>
			<path id="SVGID_00000173875957497670275950000007757221180781637515_" d="M999.913,1.012
				c77.876,120.332,165.946,241.616,265.749,363.464c767.989,937.617,1003.838,1707.563,944.633,2425.21
				c-59.204,717.759-413.576,1383.569-825.912,2112.539c-300.337,530.964-434.216,946.462-460.734,1262.112
				c-16.982,202.135,10.053,363.414,65.602,487.913c55.628,124.677,139.844,212.469,237.095,267.481
				c71.426,40.403,149.889,63.12,229.211,69.788c24.104,2.023,47.41,5.555,69.952,10.481h22.995
				c-29.458-7.778-60.272-13.135-92.492-15.843c-78.583-6.603-156.294-29.1-227.015-69.101
				c-96.312-54.48-179.724-141.451-234.842-264.979c-55.197-123.707-82.049-284.1-65.145-485.286
				c26.46-314.956,160.137-729.701,460.048-1259.916c412.651-729.524,767.29-1395.877,826.593-2114.757
				c59.312-718.989-176.826-1490.195-945.826-2429.044c-98.863-120.701-186.238-240.853-263.542-360.062H999.913z"/>
		</defs>
		<clipPath id="SVGID_00000092414497861055086570000013712170924901115540_">
			<use xlink:href="#SVGID_00000173875957497670275950000007757221180781637515_"  style="overflow:visible;"/>
		</clipPath>
		
			<linearGradient id="SVGID_00000040559947182990682160000016138758622019196288_" gradientUnits="userSpaceOnUse" x1="1826.5593" y1="-6.4891" x2="1277.6127" y2="8159.7949">
			<stop  offset="0" style="stop-color:#FFFF00"/>
			<stop  offset="1" style="stop-color:#FF00F6"/>
		</linearGradient>
		
			<rect x="906.667" y="1.012" style="clip-path:url(#SVGID_00000092414497861055086570000013712170924901115540_);fill:url(#SVGID_00000040559947182990682160000016138758622019196288_);" width="1368.296" height="6998.988"/>
	</g>
	<g>
		<defs>
			<path id="SVGID_00000183937350477216636800000007775167389190937787_" d="M1130.695,1.012
				c77.544,129.292,166.217,259.972,268.149,391.661c741.856,958.418,956.397,1734.565,877.447,2450.314
				c-78.966,715.867-451.542,1371.661-883.81,2088.992c-314.85,522.485-460.124,934.138-495.334,1248.938
				c-22.542,201.595,0.033,363.555,52.125,489.525c52.173,126.16,133.936,216.234,229.647,273.909
				c40.055,24.139,82.555,42.597,126.346,55.648h19.945c-49.869-13.03-98.273-32.981-143.524-60.248
				c-94.766-57.104-175.745-146.336-227.44-271.345c-51.774-125.193-74.197-286.272-51.758-486.9
				c35.129-314.102,180.185-725.005,494.593-1246.761c432.596-717.878,805.463-1374.208,884.547-2091.168
				c79.101-717.083-135.698-1494.499-878.54-2454.185c-101.073-130.579-189.093-260.16-266.143-388.381H1130.695z"/>
		</defs>
		<clipPath id="SVGID_00000014592677510936961090000015436159127292791999_">
			<use xlink:href="#SVGID_00000183937350477216636800000007775167389190937787_"  style="overflow:visible;"/>
		</clipPath>
		
			<linearGradient id="SVGID_00000085223998975767301450000008389475606060398727_" gradientUnits="userSpaceOnUse" x1="1853.2902" y1="-4.6963" x2="1304.3431" y2="8161.5933">
			<stop  offset="0" style="stop-color:#FFFF00"/>
			<stop  offset="1" style="stop-color:#FF00F6"/>
		</linearGradient>
		
			<rect x="874.604" y="1.012" style="clip-path:url(#SVGID_00000014592677510936961090000015436159127292791999_);fill:url(#SVGID_00000085223998975767301450000008389475606060398727_);" width="1486.125" height="6998.988"/>
	</g>
	<g>
		<defs>
			<path id="SVGID_00000115500456652466803210000001936954447801104806_" d="M1262.286,1.012
				c76.797,138.683,165.965,279.3,269.854,421.44c715.169,978.499,908.242,1760.267,809.597,2473.569
				c-98.661,713.412-489.17,1358.69-941.033,2063.836c-329.128,513.607-485.69,921.101-529.559,1234.82
				c-28.093,200.889-9.985,363.411,38.618,490.776c48.674,127.548,127.922,219.846,222.003,280.133
				c20.185,12.936,41.053,24.395,62.45,34.413h12.952c-24.928-11.022-49.174-23.98-72.5-38.928
				c-93.166-59.701-171.658-151.138-219.885-277.516c-48.303-126.568-66.275-288.208-38.317-488.152
				c43.77-313.012,200.09-719.757,528.754-1232.643c452.213-705.688,843.026-1351.5,941.838-2066.011
				c98.828-714.623-94.471-1497.656-810.585-2477.452c-103.105-141.069-191.67-280.629-268.039-418.286H1262.286z"/>
		</defs>
		<clipPath id="SVGID_00000090975999009118824980000017641730214417187235_">
			<use xlink:href="#SVGID_00000115500456652466803210000001936954447801104806_"  style="overflow:visible;"/>
		</clipPath>
		
			<linearGradient id="SVGID_00000055705521256548156650000006142328442565397895_" gradientUnits="userSpaceOnUse" x1="1879.9718" y1="-2.9032" x2="1331.0222" y2="8163.4263">
			<stop  offset="0" style="stop-color:#FFFF00"/>
			<stop  offset="1" style="stop-color:#FF00F6"/>
		</linearGradient>
		
			<rect x="843.052" y="1.012" style="clip-path:url(#SVGID_00000090975999009118824980000017641730214417187235_);fill:url(#SVGID_00000055705521256548156650000006142328442565397895_);" width="1602.834" height="6998.988"/>
	</g>
	<g>
		<defs>
			<path id="SVGID_00000018218624169998464780000011302540856295400121_" d="M1394.763,1.012
				c75.577,148.49,165.119,299.598,270.749,452.812c687.93,997.83,859.388,1784.623,741.129,2494.936
				c-118.275,710.425-526.418,1344.694-997.543,2037.126c-343.156,504.352-510.891,907.371-563.391,1219.75
				c-33.613,200.035-19.988,362.996,25.09,491.662c45.142,128.84,121.82,223.289,214.202,286.146
				c8.502,5.785,17.135,11.303,25.894,16.557h10.603c-11.364-6.554-22.533-13.553-33.477-20.998
				c-91.485-62.245-167.428-155.806-212.157-283.465c-44.789-127.844-58.301-289.905-24.843-489.011
				c52.383-311.698,219.849-713.985,562.518-1217.621c471.485-692.958,879.945-1327.751,998.407-2039.274
				c118.481-711.625-53.169-1499.695-742.017-2498.851C1565.013,298.604,1476.03,148.516,1400.82,1.012H1394.763z"/>
		</defs>
		<clipPath id="SVGID_00000022542863476709230370000003457780614874733717_">
			<use xlink:href="#SVGID_00000018218624169998464780000011302540856295400121_"  style="overflow:visible;"/>
		</clipPath>
		
			<linearGradient id="SVGID_00000038393672329867652540000004669248234482336132_" gradientUnits="userSpaceOnUse" x1="1906.6421" y1="-1.107" x2="1357.6926" y2="8165.2197">
			<stop  offset="0" style="stop-color:#FFFF00"/>
			<stop  offset="1" style="stop-color:#FF00F6"/>
		</linearGradient>
		
			<rect x="812.095" y="1.012" style="clip-path:url(#SVGID_00000022542863476709230370000003457780614874733717_);fill:url(#SVGID_00000038393672329867652540000004669248234482336132_);" width="1718.33" height="6998.988"/>
	</g>
	<g>
		<defs>
			<path id="SVGID_00000030446553035582235570000015332773651566949506_" d="M1528.78,1.012
				c73.844,158.72,162.993,320.815,270.135,485.773c660.182,1016.416,809.899,1807.632,672.114,2514.413
				c-137.809,706.882-563.275,1329.672-1053.306,2008.862c-356.916,494.697-535.688,892.944-596.776,1203.762
				c-39.118,199.047-29.991,362.323,11.529,492.176c41.573,130.031,115.619,226.551,206.232,291.931l2.89,2.072h9.354
				c-3.052-2.105-6.089-4.247-9.103-6.423c-89.733-64.745-163.072-160.362-204.268-289.214
				c-41.258-129.031-50.3-291.41-11.369-489.506c60.95-310.129,239.442-707.652,595.861-1201.658
				c490.399-679.697,916.188-1302.989,1054.216-2010.988c138.044-708.102-11.822-1500.599-672.87-2518.347
				C1696.93,319.912,1608.223,158.79,1534.685,1.012H1528.78z"/>
		</defs>
		<clipPath id="SVGID_00000182511085038794706190000002667631162333448116_">
			<use xlink:href="#SVGID_00000030446553035582235570000015332773651566949506_"  style="overflow:visible;"/>
		</clipPath>
		
			<linearGradient id="SVGID_00000111886242344510968720000007638154861577632183_" gradientUnits="userSpaceOnUse" x1="1933.3425" y1="0.6884" x2="1384.3966" y2="8166.9619">
			<stop  offset="0" style="stop-color:#FFFF00"/>
			<stop  offset="1" style="stop-color:#FF00F6"/>
		</linearGradient>
		
			<rect x="781.829" y="1.012" style="clip-path:url(#SVGID_00000182511085038794706190000002667631162333448116_);fill:url(#SVGID_00000111886242344510968720000007638154861577632183_);" width="1832.504" height="6998.988"/>
	</g>
	<g>
		<defs>
			<path id="SVGID_00000013882807334666236800000017545638957209166003_" d="M1664.145,1.012
				c71.538,169.353,159.779,342.943,268.157,520.321c631.918,1034.211,759.782,1829.251,602.571,2531.967
				c-157.24,702.848-599.696,1313.671-1108.247,1979.088c-370.419,484.683-560.104,877.848-629.724,1186.86
				c-44.588,197.885-39.964,361.354-2.035,492.306c36.316,125.406,103.175,220.993,186.608,288.447h8.596
				c-85.046-67.004-153.302-163.054-190.052-289.946c-37.687-130.111-42.25-292.679,2.129-489.628
				c69.473-308.342,258.846-700.792,628.737-1184.781c508.947-665.942,951.759-1277.277,1109.231-1981.166
				c157.507-704.035,29.531-1500.362-603.225-2535.943c-107.788-176.408-195.629-349.064-266.908-517.524H1664.145z"/>
		</defs>
		<clipPath id="SVGID_00000182515134937910922390000000926853691502566806_">
			<use xlink:href="#SVGID_00000013882807334666236800000017545638957209166003_"  style="overflow:visible;"/>
		</clipPath>
		
			<linearGradient id="SVGID_00000090267964552974338040000005031325613910931645_" gradientUnits="userSpaceOnUse" x1="1960.1101" y1="2.4842" x2="1411.1619" y2="8168.7935">
			<stop  offset="0" style="stop-color:#FFFF00"/>
			<stop  offset="1" style="stop-color:#FF00F6"/>
		</linearGradient>
		
			<rect x="752.314" y="1.012" style="clip-path:url(#SVGID_00000182515134937910922390000000926853691502566806_);fill:url(#SVGID_00000090267964552974338040000005031325613910931645_);" width="1945.31" height="6998.988"/>
	</g>
	<g>
		<defs>
			<path id="SVGID_00000134251720331093807030000002266146015498791557_" d="M1800.644,1.012
				c68.595,180.333,155.718,365.997,264.998,556.448c603.182,1051.231,709.087,1849.495,532.573,2547.612
				c-176.548,698.247-635.665,1296.647-1162.357,1947.8c-383.631,474.289-584.076,862.082-662.19,1169.059
				c-50.025,196.591-49.909,360.125-15.609,492.069c31.691,121.899,92.559,216.842,170.035,286h8.108
				c-78.87-68.804-140.917-164.178-172.942-287.36c-34.082-131.11-34.168-293.737,15.617-489.389
				c77.941-306.306,278.058-693.388,661.143-1167.002c527.106-651.664,986.592-1250.562,1163.404-1949.857
				c176.842-699.418,70.856-1498.969-533.125-2551.592c-108.75-189.527-195.506-374.301-263.891-553.789H1800.644z"/>
		</defs>
		<clipPath id="SVGID_00000115495807565635360840000000638945732283224247_">
			<use xlink:href="#SVGID_00000134251720331093807030000002266146015498791557_"  style="overflow:visible;"/>
		</clipPath>
		
			<linearGradient id="SVGID_00000158023275043494010220000009964166866587744440_" gradientUnits="userSpaceOnUse" x1="1986.9734" y1="4.2911" x2="1438.0269" y2="8170.5732">
			<stop  offset="0" style="stop-color:#FFFF00"/>
			<stop  offset="1" style="stop-color:#FF00F6"/>
		</linearGradient>
		
			<rect x="723.642" y="1.012" style="clip-path:url(#SVGID_00000115495807565635360840000000638945732283224247_);fill:url(#SVGID_00000158023275043494010220000009964166866587744440_);" width="2056.623" height="6998.988"/>
	</g>
	<g>
		<defs>
			<path id="SVGID_00000061453481163557264670000016188288002102679480_" d="M1938.669,1.012
				c64.964,191.669,150.383,389.935,260.206,594.175c573.994,1067.462,657.864,1868.341,462.183,2561.323
				c-195.714,693.098-671.15,1278.62-1215.594,1915.023c-396.556,463.539-607.607,845.661-694.148,1150.371
				c-55.419,195.132-59.809,358.61-29.156,491.45c27.804,120.488,84.427,215.776,157.956,286.646h7.776
				c-74.786-70.574-132.444-166.25-160.506-287.855c-30.458-131.998-26.061-294.565,29.097-488.769
				c86.352-304.042,297.058-685.467,693.052-1148.35c544.853-636.885,1020.664-1222.892,1216.682-1917.066
				c196.049-694.289,112.141-1496.451-462.603-2565.31c-109.345-203.352-194.481-400.775-259.28-591.64H1938.669z"/>
		</defs>
		<clipPath id="SVGID_00000109742802410150069340000015332278396757699470_">
			<use xlink:href="#SVGID_00000061453481163557264670000016188288002102679480_"  style="overflow:visible;"/>
		</clipPath>
		
			<linearGradient id="SVGID_00000103259272218809293080000013586078621985840826_" gradientUnits="userSpaceOnUse" x1="2011.7943" y1="5.9598" x2="1462.8457" y2="8172.272">
			<stop  offset="0" style="stop-color:#FFFF00"/>
			<stop  offset="1" style="stop-color:#FF00F6"/>
		</linearGradient>
		
			<rect x="691.507" y="1.012" style="clip-path:url(#SVGID_00000109742802410150069340000015332278396757699470_);fill:url(#SVGID_00000103259272218809293080000013586078621985840826_);" width="2170.76" height="6998.988"/>
	</g>
	<g>
		<defs>
			<path id="SVGID_00000106865494162143771430000003968804265924735876_" d="M2078.634,1.012
				c60.598,203.368,143.344,414.677,253.334,633.477c544.363,1082.874,606.129,1885.758,391.429,2573.086
				c-214.741,687.453-706.13,1259.652-1267.896,1880.805c-409.183,452.441-630.682,828.604-725.587,1130.801
				c-60.778,193.541-69.669,356.835-42.69,490.461c24.41,120.908,78.193,217.548,149.491,290.358h7.54
				c-72.433-72.517-127.142-169.499-151.757-291.43c-26.812-132.787-17.938-295.171,42.547-487.776
				c94.7-301.556,315.835-677.034,724.427-1128.819c562.198-621.636,1053.981-1194.311,1269.048-1882.807
				c215.104-688.62,153.33-1492.79-391.747-2577.084c-109.565-217.955-192.058-428.461-252.527-631.072H2078.634z"/>
		</defs>
		<clipPath id="SVGID_00000061450432652081142140000004575798246191974034_">
			<use xlink:href="#SVGID_00000106865494162143771430000003968804265924735876_"  style="overflow:visible;"/>
		</clipPath>
		
			<linearGradient id="SVGID_00000098931094403197429360000001425224887191716236_" gradientUnits="userSpaceOnUse" x1="2036.7284" y1="7.6401" x2="1487.7821" y2="8173.918">
			<stop  offset="0" style="stop-color:#FFFF00"/>
			<stop  offset="1" style="stop-color:#FF00F6"/>
		</linearGradient>
		
			<rect x="660.245" y="1.012" style="clip-path:url(#SVGID_00000061450432652081142140000004575798246191974034_);fill:url(#SVGID_00000098931094403197429360000001425224887191716236_);" width="2283.379" height="6998.988"/>
	</g>
	<g>
		<defs>
			<path id="SVGID_00000071542890875972956270000009936133752745133456_" d="M2219.975,1.012
				c55.419,215.324,135.201,440.29,244.896,674.355c514.318,1097.464,553.94,1901.743,320.379,2582.895
				c-233.598,681.266-740.569,1239.708-1319.24,1845.152c-421.476,440.978-653.259,810.896-756.458,1110.385
				c-66.089,191.792-79.479,354.774-56.194,489.097c21.332,123.035,73.429,222.021,143.981,297.104h7.407
				c-71.637-74.789-124.599-174.083-146.091-298.03c-23.141-133.483-9.795-295.564,55.976-486.432
				c102.968-298.81,334.366-668.041,755.26-1108.408C2049.001,4501.227,2556.37,3942.321,2790.329,3260
				c234.002-682.43,194.408-1488.001-320.583-2586.9c-109.318-233.265-188.871-457.472-244.196-672.089H2219.975z"/>
		</defs>
		<clipPath id="SVGID_00000021827990890755815220000000584513931143752072_">
			<use xlink:href="#SVGID_00000071542890875972956270000009936133752745133456_"  style="overflow:visible;"/>
		</clipPath>
		
			<linearGradient id="SVGID_00000091699882327125478490000006730639309304510378_" gradientUnits="userSpaceOnUse" x1="2061.8826" y1="9.3246" x2="1512.9344" y2="8175.6309">
			<stop  offset="0" style="stop-color:#FFFF00"/>
			<stop  offset="1" style="stop-color:#FF00F6"/>
		</linearGradient>
		
			<rect x="630.072" y="1.012" style="clip-path:url(#SVGID_00000021827990890755815220000000584513931143752072_);fill:url(#SVGID_00000091699882327125478490000006730639309304510378_);" width="2394.259" height="6998.988"/>
	</g>
	<g>
		<defs>
			<path id="SVGID_00000072247084571354904700000008669550864726460806_" d="M2363.332,1.012
				c49.38,227.569,125.301,466.666,234.226,716.808c483.878,1111.209,501.324,1916.283,249.079,2590.748
				c-252.282,674.567-774.446,1218.826-1369.583,1808.095c-433.468,429.197-675.352,792.586-786.764,1089.111
				c-71.346,189.894-89.219,352.451-69.641,487.367c18.395,126.755,69.836,229.119,141.045,306.858h7.314
				c-72.265-77.421-124.54-180.048-143.056-307.631c-19.453-134.06-1.648-295.712,69.36-484.699
				c111.161-295.863,352.649-658.583,785.52-1087.187c595.589-589.718,1118.165-1134.428,1370.84-1810.045
				c252.708-675.716,235.324-1482.073-249.195-2594.747c-108.596-249.385-184.343-487.772-233.655-714.679H2363.332z"/>
		</defs>
		<clipPath id="SVGID_00000150067749318966658960000009881787213812153221_">
			<use xlink:href="#SVGID_00000072247084571354904700000008669550864726460806_"  style="overflow:visible;"/>
		</clipPath>
		
			<linearGradient id="SVGID_00000182526116511939855020000000817087801929401987_" gradientUnits="userSpaceOnUse" x1="2087.29" y1="11.0374" x2="1538.3411" y2="8177.356">
			<stop  offset="0" style="stop-color:#FFFF00"/>
			<stop  offset="1" style="stop-color:#FF00F6"/>
		</linearGradient>
		
			<rect x="601.071" y="1.012" style="clip-path:url(#SVGID_00000150067749318966658960000009881787213812153221_);fill:url(#SVGID_00000182526116511939855020000000817087801929401987_);" width="2503.307" height="6998.988"/>
	</g>
</g>
</svg>
